<svg xmlns="http://www.w3.org/2000/svg" width="1600" height="900" viewBox="0 0 1600 900" role="img" aria-labelledby="title desc"><title id="title">AWS Lab 6 — Security Detection and Automated Incident Response</title><desc id="desc">Portfolio graphic showing an event-driven AWS security incident response workflow from detection through verification.</desc><defs><linearGradient id="bg" x1="0" y1="0" x2="1" y2="1"><stop stop-color="#020617"/><stop offset=".55" stop-color="#071a3a"/><stop offset="1" stop-color="#00111f"/></linearGradient><linearGradient id="cyan" x1="0" x2="1"><stop stop-color="#38bdf8"/><stop offset="1" stop-color="#06b6d4"/></linearGradient><filter id="glow"><feGaussianBlur stdDeviation="8" result="b"/><feMerge><feMergeNode in="b"/><feMergeNode in="SourceGraphic"/></feMerge></filter></defs><rect width="1600" height="900" fill="url(#bg)"/><g opacity=".14" stroke="#38bdf8" fill="none"><path d="M0 150H1600M0 300H1600M0 450H1600M0 600H1600M0 750H1600"/><path d="M200 0V900M400 0V900M600 0V900M800 0V900M1000 0V900M1200 0V900M1400 0V900"/></g><circle cx="1290" cy="170" r="250" fill="#1677ff" opacity=".1"/><circle cx="1450" cy="760" r="300" fill="#00bfff" opacity=".06"/><text x="70" y="88" fill="#f8fafc" font-family="Arial,Helvetica,sans-serif" font-size="54" font-weight="800">aws</text><path d="M72 103q75 48 150 0" fill="none" stroke="#ff9900" stroke-width="10" stroke-linecap="round"/><text x="285" y="65" fill="#38bdf8" font-family="Arial,Helvetica,sans-serif" font-size="28" font-weight="700" letter-spacing="6">LAB 6</text><text x="285" y="132" fill="#f8fafc" font-family="Arial,Helvetica,sans-serif" font-size="58" font-weight="800">Security Detection &amp;</text><text x="285" y="195" fill="#20b7ff" font-family="Arial,Helvetica,sans-serif" font-size="58" font-weight="800">Automated Incident Response</text><text x="285" y="238" fill="#bae6fd" font-family="Arial,Helvetica,sans-serif" font-size="24" font-weight="700" letter-spacing="3">DETECT • INVESTIGATE • REMEDIATE • VERIFY</text><g transform="translate(70 310)"><rect width="255" height="210" rx="24" fill="#07182d" stroke="#1597e8" stroke-width="2"/><circle cx="128" cy="68" r="38" fill="#12395b" stroke="#38bdf8"/><path d="M110 68l13 13 25-29" fill="none" stroke="#38bdf8" stroke-width="8" stroke-linecap="round" stroke-linejoin="round"/><text x="128" y="130" text-anchor="middle" fill="#f8fafc" font-family="Arial" font-size="26" font-weight="800">CloudTrail</text><text x="128" y="164" text-anchor="middle" fill="#7dd3fc" font-family="Arial" font-size="19">Detect suspicious</text><text x="128" y="190" text-anchor="middle" fill="#7dd3fc" font-family="Arial" font-size="19">security changes</text></g><path d="M335 415H385" stroke="#38bdf8" stroke-width="8"/><path d="M375 398l22 17-22 17" fill="none" stroke="#38bdf8" stroke-width="8"/><g transform="translate(410 310)"><rect width="255" height="210" rx="24" fill="#07182d" stroke="#1597e8" stroke-width="2"/><circle cx="128" cy="68" r="38" fill="#3b0d58" stroke="#d946ef"/><circle cx="128" cy="68" r="16" fill="none" stroke="#f0abfc" stroke-width="5"/><circle cx="98" cy="52" r="7" fill="#f0abfc"/><circle cx="158" cy="52" r="7" fill="#f0abfc"/><circle cx="128" cy="100" r="7" fill="#f0abfc"/><text x="128" y="130" text-anchor="middle" fill="#f8fafc" font-family="Arial" font-size="24" font-weight="800">EventBridge</text><text x="128" y="164" text-anchor="middle" fill="#7dd3fc" font-family="Arial" font-size="19">Route security</text><text x="128" y="190" text-anchor="middle" fill="#7dd3fc" font-family="Arial" font-size="19">events</text></g><path d="M675 415H725" stroke="#38bdf8" stroke-width="8"/><path d="M715 398l22 17-22 17" fill="none" stroke="#38bdf8" stroke-width="8"/><g transform="translate(750 310)"><rect width="255" height="210" rx="24" fill="#07182d" stroke="#1597e8" stroke-width="2"/><rect x="101" y="38" width="54" height="62" rx="10" fill="#ff9900"/><path d="M128 52v34m-15-17h30" stroke="#fff" stroke-width="6"/><text x="128" y="130" text-anchor="middle" fill="#f8fafc" font-family="Arial" font-size="25" font-weight="800">AWS Lambda</text><text x="128" y="164" text-anchor="middle" fill="#7dd3fc" font-family="Arial" font-size="19">Investigate &amp;</text><text x="128" y="190" text-anchor="middle" fill="#7dd3fc" font-family="Arial" font-size="19">remediate</text></g><path d="M1015 415H1065" stroke="#38bdf8" stroke-width="8"/><path d="M1055 398l22 17-22 17" fill="none" stroke="#38bdf8" stroke-width="8"/><g transform="translate(1090 310)"><rect width="255" height="210" rx="24" fill="#07182d" stroke="#1597e8" stroke-width="2"/><path d="M128 34l45 18v35c0 36-22 56-45 68-23-12-45-32-45-68V52z" fill="#073b3a" stroke="#22c55e" stroke-width="4"/><path d="M107 84l15 15 31-35" fill="none" stroke="#4ade80" stroke-width="7" stroke-linecap="round"/><text x="128" y="130" text-anchor="middle" fill="#f8fafc" font-family="Arial" font-size="23" font-weight="800">EC2 Security Group</text><text x="128" y="164" text-anchor="middle" fill="#7dd3fc" font-family="Arial" font-size="19">Remove public SSH</text><text x="128" y="190" text-anchor="middle" fill="#7dd3fc" font-family="Arial" font-size="19">0.0.0.0/0</text></g><g transform="translate(70 570)"><rect width="1275" height="105" rx="22" fill="#020b18" stroke="#164e75"/><text x="40" y="42" fill="#38bdf8" font-family="Arial" font-size="20" font-weight="700">INCIDENT RESPONSE CONTROLS</text><text x="40" y="76" fill="#e0f2fe" font-family="Arial" font-size="22">Least-Privilege IAM</text><text x="295" y="76" fill="#64748b" font-family="Arial" font-size="22">•</text><text x="330" y="76" fill="#e0f2fe" font-family="Arial" font-size="22">Terraform IaC</text><text x="545" y="76" fill="#64748b" font-family="Arial" font-size="22">•</text><text x="580" y="76" fill="#e0f2fe" font-family="Arial" font-size="22">Python / Boto3</text><text x="810" y="76" fill="#64748b" font-family="Arial" font-size="22">•</text><text x="845" y="76" fill="#e0f2fe" font-family="Arial" font-size="22">Dry-Run Safety Gate</text><text x="1105" y="76" fill="#64748b" font-family="Arial" font-size="22">•</text><text x="1140" y="76" fill="#e0f2fe" font-family="Arial" font-size="22">Pytest + CI</text></g><g transform="translate(70 715)"><rect width="1275" height="110" rx="22" fill="#041225" stroke="#0ea5e9" stroke-width="2"/><text x="35" y="42" fill="#f8fafc" font-family="Arial" font-size="24" font-weight="800">PUBLIC SSH EXPOSURE</text><text x="35" y="76" fill="#fca5a5" font-family="Arial" font-size="21">TCP/22 → 0.0.0.0/0</text><text x="380" y="70" fill="#38bdf8" font-family="Arial" font-size="34" font-weight="800">→</text><text x="450" y="70" fill="#f8fafc" font-family="Arial" font-size="21">Detected</text><text x="650" y="70" fill="#38bdf8" font-family="Arial" font-size="34" font-weight="800">→</text><text x="720" y="70" fill="#f8fafc" font-family="Arial" font-size="21">Remediated</text><text x="925" y="70" fill="#38bdf8" font-family="Arial" font-size="34" font-weight="800">→</text><text x="995" y="70" fill="#4ade80" font-family="Arial" font-size="21" font-weight="700">Verified ✓</text></g><text x="1420" y="750" fill="#38bdf8" font-family="Arial" font-size="18" font-weight="700" letter-spacing="3">REAL AUTOMATION</text><text x="1420" y="780" fill="#e0f2fe" font-family="Arial" font-size="18" letter-spacing="3">REAL SECURITY</text><text x="1420" y="810" fill="#94a3b8" font-family="Arial" font-size="16" letter-spacing="2">PORTFOLIO LAB</text></svg>